<svg width="1280" height="720" viewBox="0 0 1280 720" fill="none" xmlns="http://www.w3.org/2000/svg">
<g clip-path="url(#clip0)">
<rect width="1280" height="720" fill="white"/>
<path d="M0 1H1276C1278.21 1 1280 2.79086 1280 5V717C1280 719.209 1278.21 721 1276 721H0V1Z" fill="#1E7A44"/>
<path d="M167.194 434.99C143.965 377.062 64.1615 372.537 27.1632 377.515H0V721.006H525C508.296 698.076 463.742 648.144 419.157 631.852C363.426 611.487 317.061 622.801 253.836 576.188C190.611 529.574 196.231 507.399 167.194 434.99Z" fill="#CEDC21"/>
<path d="M1112.81 286.016C1136.03 343.944 1174.5 360.214 1211 366.506C1247.5 372.798 1280 343.491 1280 343.491L1280 0.000213623L755 0.000167726C771.704 22.9297 816.258 72.8618 860.843 89.1539C916.574 109.519 962.939 98.2051 1026.16 144.818C1089.39 191.432 1083.77 213.607 1112.81 286.016Z" fill="#51B13E"/>
<path d="M562.797 293H551.898V250.672H537.941V241.602H576.754V250.672H562.797V293ZM584.664 293V241.602H595.562V293H584.664ZM628.328 293H617.43V250.672H603.473V241.602H642.285V250.672H628.328V293ZM650.195 293V241.602H661.094V284H681.941V293H650.195ZM720.508 293H690.906V241.602H720.508V250.531H701.805V261.816H719.207V270.746H701.805V284H720.508V293ZM561.883 360.137H582.273V386.785C578.969 387.863 575.852 388.613 572.922 389.035C570.016 389.48 567.039 389.703 563.992 389.703C556.234 389.703 550.305 387.43 546.203 382.883C542.125 378.312 540.086 371.762 540.086 363.23C540.086 354.934 542.453 348.465 547.188 343.824C551.945 339.184 558.531 336.863 566.945 336.863C572.219 336.863 577.305 337.918 582.203 340.027L578.582 348.746C574.832 346.871 570.93 345.934 566.875 345.934C562.164 345.934 558.391 347.516 555.555 350.68C552.719 353.844 551.301 358.098 551.301 363.441C551.301 369.02 552.438 373.285 554.711 376.238C557.008 379.168 560.336 380.633 564.695 380.633C566.969 380.633 569.277 380.398 571.621 379.93V369.207H561.883V360.137ZM641.195 363.23C641.195 371.738 639.086 378.277 634.867 382.848C630.648 387.418 624.602 389.703 616.727 389.703C608.852 389.703 602.805 387.418 598.586 382.848C594.367 378.277 592.258 371.715 592.258 363.16C592.258 354.605 594.367 348.078 598.586 343.578C602.828 339.055 608.898 336.793 616.797 336.793C624.695 336.793 630.73 339.066 634.902 343.613C639.098 348.16 641.195 354.699 641.195 363.23ZM603.684 363.23C603.684 368.973 604.773 373.297 606.953 376.203C609.133 379.109 612.391 380.562 616.727 380.562C625.422 380.562 629.77 374.785 629.77 363.23C629.77 351.652 625.445 345.863 616.797 345.863C612.461 345.863 609.191 347.328 606.988 350.258C604.785 353.164 603.684 357.488 603.684 363.23ZM681.449 389H651.848V337.602H681.449V346.531H662.746V357.816H680.148V366.746H662.746V380H681.449V389ZM722.547 374.727C722.547 379.367 720.871 383.023 717.52 385.695C714.191 388.367 709.551 389.703 703.598 389.703C698.113 389.703 693.262 388.672 689.043 386.609V376.484C692.512 378.031 695.441 379.121 697.832 379.754C700.246 380.387 702.449 380.703 704.441 380.703C706.832 380.703 708.66 380.246 709.926 379.332C711.215 378.418 711.859 377.059 711.859 375.254C711.859 374.246 711.578 373.355 711.016 372.582C710.453 371.785 709.621 371.023 708.52 370.297C707.441 369.57 705.227 368.41 701.875 366.816C698.734 365.34 696.379 363.922 694.809 362.562C693.238 361.203 691.984 359.621 691.047 357.816C690.109 356.012 689.641 353.902 689.641 351.488C689.641 346.941 691.176 343.367 694.246 340.766C697.34 338.164 701.605 336.863 707.043 336.863C709.715 336.863 712.258 337.18 714.672 337.812C717.109 338.445 719.652 339.336 722.301 340.484L718.785 348.957C716.043 347.832 713.77 347.047 711.965 346.602C710.184 346.156 708.426 345.934 706.691 345.934C704.629 345.934 703.047 346.414 701.945 347.375C700.844 348.336 700.293 349.59 700.293 351.137C700.293 352.098 700.516 352.941 700.961 353.668C701.406 354.371 702.109 355.062 703.07 355.742C704.055 356.398 706.363 357.594 709.996 359.328C714.801 361.625 718.094 363.934 719.875 366.254C721.656 368.551 722.547 371.375 722.547 374.727ZM596.898 485H586.035V462.816H565.68V485H554.781V433.602H565.68V453.746H586.035V433.602H596.898V485ZM639.508 485H609.906V433.602H639.508V442.531H620.805V453.816H638.207V462.746H620.805V476H639.508V485ZM661.164 456.418H664.68C668.125 456.418 670.668 455.844 672.309 454.695C673.949 453.547 674.77 451.742 674.77 449.281C674.77 446.844 673.926 445.109 672.238 444.078C670.574 443.047 667.984 442.531 664.469 442.531H661.164V456.418ZM661.164 465.277V485H650.266V433.602H665.242C672.227 433.602 677.395 434.879 680.746 437.434C684.098 439.965 685.773 443.82 685.773 449C685.773 452.023 684.941 454.719 683.277 457.086C681.613 459.43 679.258 461.27 676.211 462.605C683.945 474.16 688.984 481.625 691.328 485H679.234L666.965 465.277H661.164ZM727.398 485H697.797V433.602H727.398V442.531H708.695V453.816H726.098V462.746H708.695V476H727.398V485Z" fill="white"/>
</g>
<defs>
<clipPath id="clip0">
<rect width="1280" height="720" fill="white"/>
</clipPath>
</defs>
</svg>
